<svg width="190" height="151" xmlns="http://www.w3.org/2000/svg" viewBox="155.2274963378906 -0.7599990844726534 189.54500732421874 151.5199981689453" style="background: rgba(0, 0, 0, 0)" preserveAspectRatio="xMidYMid"><defs><linearGradient id="editing-outline-gradient" x1="-0.41354545764260087" x2="1.4135454576426008" y1="0.09326335692419985" y2="0.9067366430758002"><stop offset="0" stop-color="#85a2b6"></stop><stop offset="1" stop-color="#bbcedd"></stop></linearGradient><filter id="editing-outline" x="-100%" y="-100%" width="300%" height="300%"><feMorphology in="SourceGraphic" operator="dilate" radius="3" result="outline"></feMorphology><feComposite operator="out" in="outline" in2="SourceAlpha"></feComposite></filter></defs><g filter="url(#editing-outline)"><g transform="translate(188.2700207233429, 102.74500274658203)"><path d="M14.66 0.51L14.66 0.51Q10.88 0.51 7.81-0.96L7.81-0.96L7.81-0.96Q4.74-2.43 2.98-5.28L2.98-5.28L2.98-5.28Q1.22-8.13 1.22-12.16L1.22-12.16L1.22-25.92L12.03-25.92L12.03-12.80L12.03-12.80Q12.03-11.33 12.64-10.46L12.64-10.46L12.64-10.46Q13.25-9.60 14.53-9.60L14.53-9.60L14.53-9.60Q15.74-9.60 16.35-10.40L16.35-10.40L16.35-10.40Q16.96-11.20 16.96-12.67L16.96-12.67L16.96-54.98L28.03-54.98L28.03-13.76L28.03-13.76Q28.03-9.47 26.34-6.24L26.34-6.24L26.34-6.24Q24.64-3.01 21.60-1.25L21.60-1.25L21.60-1.25Q18.56 0.51 14.66 0.51L14.66 0.51ZM43.20 0L32.26 0L32.26-54.98L43.20-54.98L43.20-35.33L48.38-35.33L48.38-54.98L59.33-54.98L59.33 0L48.38 0L48.38-24.96L43.20-24.96L43.20 0ZM73.41 0L62.72 0L68.03-54.98L86.66-54.98L91.90 0L81.47 0L80.70-8.90L74.05-8.90L73.41 0ZM76.93-45.63L74.88-17.66L79.87-17.66L77.44-45.63L76.93-45.63ZM105.98 0L95.23 0L95.23-54.98L106.56-54.98L111.62-28.67L111.62-54.98L122.24-54.98L122.24 0L111.49 0L105.98-27.52L105.98 0Z" fill="white"></path></g></g><style>text {
  font-size: 64px;
  font-family: Arial Black;
  dominant-baseline: central;
  text-anchor: middle;
}</style></svg>